<?xml version="1.0" encoding="UTF-8" standalone="no"?>
<svg
   xmlns:dc="http://purl.org/dc/elements/1.1/"
   xmlns:cc="http://creativecommons.org/ns#"
   xmlns:rdf="http://www.w3.org/1999/02/22-rdf-syntax-ns#"
   xmlns:svg="http://www.w3.org/2000/svg"
   xmlns="http://www.w3.org/2000/svg"
   version="1.1"
   id="svg4730"
   viewBox="0 0 1578.2866 1175.3279"
   height="331.70367mm"
   width="445.42755mm">
  <defs
     id="defs4732" />
  <metadata
     id="metadata4735">
    <rdf:RDF>
      <cc:Work
         rdf:about="">
        <dc:format>image/svg+xml</dc:format>
        <dc:type
           rdf:resource="http://purl.org/dc/dcmitype/StillImage" />
        <dc:title></dc:title>
      </cc:Work>
    </rdf:RDF>
  </metadata>
  <g
     style="display:inline"
     transform="translate(1038.8411,711.91116)"
     id="layer1">
    <g
       transform="matrix(0.41412944,0,0,0.41412944,-239.36959,-217.60631)"
       style="font-style:normal;font-variant:normal;font-weight:normal;font-stretch:normal;font-size:82.87535095px;line-height:125%;font-family:Asap;-inkscape-font-specification:Asap;letter-spacing:0px;word-spacing:0px;fill:#ffffff;fill-opacity:1;stroke:none"
       id="g4433">
      <path
         d="m -648.73894,412.88306 7.95603,7.79028 v 15.24906 l -7.95603,7.95604 h -24.8626 v 3.23214 l 3.97801,4.06089 h 24.86261 v 7.95603 h -28.84062 l -7.95604,-7.95603 v -30.49813 l 7.95604,-7.79028 z m 0,19.06133 v -7.29303 l -3.97802,-3.97802 h -16.90657 l -3.97801,3.97802 v 11.27104 h 20.88458 z"
         style="font-style:normal;font-variant:normal;font-weight:normal;font-stretch:normal;font-family:TRACEROUTE;-inkscape-font-specification:TRACEROUTE;fill:#ffffff;fill-opacity:1"
         id="path4435" />
      <path
         d="m -623.74684,412.88306 h 32.81864 v 46.24444 h -7.95604 v -38.45416 h -20.88459 l -3.97801,3.97802 v 34.47614 h -7.95604 v -38.45416 z"
         style="font-style:normal;font-variant:normal;font-weight:normal;font-stretch:normal;font-family:TRACEROUTE;-inkscape-font-specification:TRACEROUTE;fill:#ffffff;fill-opacity:1"
         id="path4437" />
      <path
         d="m -574.30652,404.76127 h 7.54166 v 7.54166 h -7.54166 z m 0,54.86348 v -43.59243 h 7.54166 v 47.4047 l -7.54166,7.45878 h -7.54165 v -7.45878 h 3.81226 z"
         style="font-style:normal;font-variant:normal;font-weight:normal;font-stretch:normal;font-family:TRACEROUTE;-inkscape-font-specification:TRACEROUTE;fill:#ffffff;fill-opacity:1"
         id="path4439" />
      <path
         d="m -524.74965,412.88306 7.95603,7.79028 v 38.45416 h -32.81864 l -7.95603,-7.95603 V 435.9224 l 7.95603,-7.95603 h 24.86261 v -3.31501 l -3.97802,-3.97802 h -24.8626 v -7.79028 z m 0,38.28841 V 435.9224 h -20.88459 l -3.97802,3.97802 v 7.21016 l 3.97802,4.06089 z"
         style="font-style:normal;font-variant:normal;font-weight:normal;font-stretch:normal;font-family:TRACEROUTE;-inkscape-font-specification:TRACEROUTE;fill:#ffffff;fill-opacity:1"
         id="path4441" />
      <path
         d="m -466.93891,412.88306 7.95603,7.79028 v 38.45416 h -7.95603 v -34.47614 l -3.97802,-3.97802 h -8.45328 v 38.45416 h -7.95604 v -38.45416 h -12.4313 v 38.45416 h -7.95603 v -46.24444 z"
         style="font-style:normal;font-variant:normal;font-weight:normal;font-stretch:normal;font-family:TRACEROUTE;-inkscape-font-specification:TRACEROUTE;fill:#ffffff;fill-opacity:1"
         id="path4443" />
      <path
         d="m -417.10881,412.88306 7.95603,7.79028 v 30.49813 l -7.95603,7.95603 h -32.81864 v -54.36623 h 7.95603 v 8.12179 z m 0,34.22752 v -22.45922 l -3.97802,-3.97802 h -20.88459 v 30.49813 h 20.88459 z"
         style="font-style:normal;font-variant:normal;font-weight:normal;font-stretch:normal;font-family:TRACEROUTE;-inkscape-font-specification:TRACEROUTE;fill:#ffffff;fill-opacity:1"
         id="path4445" />
      <path
         d="m -392.11671,412.88306 h 32.81864 v 7.79028 h -28.84063 l -3.97801,3.97802 v 34.47614 h -7.95604 v -38.45416 z"
         style="font-style:normal;font-variant:normal;font-weight:normal;font-stretch:normal;font-family:TRACEROUTE;-inkscape-font-specification:TRACEROUTE;fill:#ffffff;fill-opacity:1"
         id="path4447" />
      <path
         d="m -317.3994,412.88306 7.95603,7.79028 v 15.24906 l -7.95603,7.95604 h -24.86261 v 3.23214 l 3.97802,4.06089 h 24.86261 v 7.95603 h -28.84063 l -7.95603,-7.95603 v -30.49813 l 7.95603,-7.79028 z m 0,19.06133 v -7.29303 l -3.97802,-3.97802 h -16.90657 l -3.97802,3.97802 v 11.27104 h 20.88459 z"
         style="font-style:normal;font-variant:normal;font-weight:normal;font-stretch:normal;font-family:TRACEROUTE;-inkscape-font-specification:TRACEROUTE;fill:#ffffff;fill-opacity:1"
         id="path4449" />
      <path
         d="m -244.23601,412.88306 7.95603,7.79028 v 30.49813 l -7.95603,7.95603 h -32.81864 v -54.36623 h 7.95604 v 8.12179 z m 0,34.22752 v -22.45922 l -3.97802,-3.97802 h -20.88458 v 30.49813 h 20.88458 z"
         style="font-style:normal;font-variant:normal;font-weight:normal;font-stretch:normal;font-family:TRACEROUTE;-inkscape-font-specification:TRACEROUTE;fill:#ffffff;fill-opacity:1"
         id="path4451" />
      <path
         d="m -219.16103,412.88306 v -8.12179 h -8.03891 v 8.12179 z m -8.03891,46.24444 v -42.43218 h 8.03891 v 42.43218 z"
         style="font-style:normal;font-variant:normal;font-weight:normal;font-stretch:normal;font-family:TRACEROUTE;-inkscape-font-specification:TRACEROUTE;fill:#ffffff;fill-opacity:1"
         id="path4453" />
      <path
         d="m -169.26749,420.67334 h -32.81864 v 26.43724 l 3.97801,4.06089 h 28.84063 v 7.95603 h -32.81864 l -7.95604,-7.95603 v -46.4102 h 7.95604 v 8.12179 h 32.81864 z"
         style="font-style:normal;font-variant:normal;font-weight:normal;font-stretch:normal;font-family:TRACEROUTE;-inkscape-font-specification:TRACEROUTE;fill:#ffffff;fill-opacity:1"
         id="path4455" />
    </g>
    <path
       style="fill:#a80000;fill-opacity:1;stroke:#ffffff;stroke-width:5.60523748;stroke-miterlimit:4;stroke-dasharray:none;stroke-opacity:1"
       d="M -254.36502,-370.72551 H 54.53708 L 150.48192,-204.54413 -3.9689803,62.97291 -195.85866,62.972788 -350.05453,-204.98551 Z"
       id="code_bg" />
    <path
       id="ux_bg"
       d="m -255.01492,-374.15902 h 188.09353 l 58.4216897,-101.18951 -94.0466197,-162.89387 -116.84367,5e-5 -93.89138,163.1625 z"
       style="fill:#dc0000;fill-opacity:1;stroke:#ffffff;stroke-width:5.60523748;stroke-miterlimit:4;stroke-dasharray:none;stroke-opacity:1" />
    <path
       style="fill:#ff2a2a;fill-opacity:1;stroke:#ffffff;stroke-width:5.60523748;stroke-miterlimit:4;stroke-dasharray:none;stroke-opacity:1"
       d="m -410.24498,-638.2424 h 115.14951 l 35.76505,61.94743 -57.57446,99.72228 h -71.53067 l -57.47973,-99.88676 z"
       id="design_bg" />
    <path
       style="fill:#dc0000;fill-opacity:1;stroke:#ffffff;stroke-width:5.60523748;stroke-miterlimit:4;stroke-dasharray:none;stroke-opacity:1"
       d="m -505.40899,57.814822 h 185.98736 l 57.76757,-100.056542 -92.99367,-161.07006 -115.53572,4e-5 -92.83981,161.335689 z"
       id="mobile_bg" />
    <path
       id="3d_bg"
       d="m -628.16816,-142.14531 h 117.34032 l 36.44522,-63.12604 -58.66972,-101.61947 h -72.89135 l -58.57331,101.78714 z"
       style="fill:#ff2a2a;fill-opacity:1;stroke:#ffffff;stroke-width:5.60523748;stroke-miterlimit:4;stroke-dasharray:none;stroke-opacity:1" />
    <path
       id="web_bg"
       d="m -505.91208,-473.14833 h 189.34071 l 58.80931,101.86059 -94.67048,163.97412 h -117.61863 l -94.51381,-164.24456 z"
       style="fill:#ff8080;fill-opacity:1;stroke:#ffffff;stroke-width:5.60523748;stroke-miterlimit:4;stroke-dasharray:none;stroke-opacity:1" />
    <path
       id="2d_bg"
       d="m -475.52495,-476.48297 h 51.48157 l 15.99006,-27.69579 -25.74092,-44.58431 h -31.98011 l -25.69835,44.65791 z"
       style="fill:#a80000;fill-opacity:1;stroke:#ffffff;stroke-width:5.60523748;stroke-miterlimit:4;stroke-dasharray:none;stroke-opacity:1" />
    <path
       style="fill:#ff8080;fill-opacity:1;stroke:#ffffff;stroke-width:5.60523748;stroke-miterlimit:4;stroke-dasharray:none;stroke-opacity:1"
       d="m -594.69733,-138.9762 h 51.48157 l 15.99007,27.69577 -25.74065,44.584304 h -31.98041 l -25.69833,-44.657894 z"
       id="ar_bg" />
    <g
       id="code_text"
       style="font-style:normal;font-weight:normal;line-height:0%;font-family:sans-serif;letter-spacing:0px;word-spacing:0px;fill:#ffffff;fill-opacity:1;stroke:none;stroke-width:1px;stroke-linecap:butt;stroke-linejoin:miter;stroke-opacity:1"
       aria-label="code"
       transform="matrix(1.2754818,0,0,1.2754818,24.926023,94.682305)">
      <path
         id="path715"
         style="font-style:normal;font-variant:normal;font-weight:normal;font-stretch:normal;font-size:160.03689575px;line-height:1.25;font-family:'Archivo Narrow';-inkscape-font-specification:'Archivo Narrow'"
         d="m -205.14463,-257.17717 q 6.87659,0 11.72146,2.188 4.92301,2.10986 8.04873,6.32959 3.12572,4.21972 4.53229,10.39302 1.48472,6.1733 1.48472,14.22203 h -13.59688 q 0,-5.47001 -0.62515,-9.45531 -0.547,-4.06343 -1.95357,-6.7203 -1.40658,-2.65686 -3.75087,-3.98529 -2.34429,-1.32843 -5.86073,-1.32843 -7.8143,0 -11.40888,7.34544 -3.59457,7.34545 -3.59457,21.95819 v 6.1733 q 0,14.5346 3.51643,21.88004 3.51644,7.34544 11.48702,7.34544 3.51644,0 5.93887,-1.40657 2.50058,-1.40657 3.9853,-4.14158 1.56286,-2.735 2.188,-6.7203 0.70329,-3.98529 0.70329,-9.22087 h 12.97174 q 0,6.64215 -1.40657,12.65916 -1.40658,5.93887 -4.5323,10.54931 -3.04758,4.5323 -7.97059,7.2673 -4.92301,2.65686 -11.87774,2.65686 -7.42358,0 -12.89359,-2.57872 -5.39187,-2.65686 -8.90831,-8.04873 -3.51643,-5.47001 -5.23558,-13.75317 -1.71914,-8.28316 -1.71914,-19.61389 0,-22.58333 6.95472,-33.28893 7.03288,-10.70559 21.8019,-10.70559 z" />
      <path
         id="path717"
         style="font-style:normal;font-variant:normal;font-weight:normal;font-stretch:normal;font-size:160.03689575px;line-height:1.25;font-family:'Archivo Narrow';-inkscape-font-specification:'Archivo Narrow'"
         d="m -137.55091,-257.17717 q 14.76903,0 22.42704,10.70559 7.65802,10.7056 7.65802,33.28893 0,22.66147 -7.65802,33.36706 -7.65801,10.62745 -22.42704,10.62745 -14.76903,0 -22.42705,-10.62745 -7.65801,-10.70559 -7.65801,-33.36706 0,-22.58333 7.65801,-33.28893 7.65802,-10.70559 22.42705,-10.70559 z m 0,11.64331 q -8.28316,0 -12.3466,7.34544 -3.98529,7.34545 -3.98529,21.95819 v 6.1733 q 0,14.5346 3.98529,21.88004 4.06344,7.34544 12.3466,7.34544 8.20501,0 12.26845,-7.34544 4.06344,-7.34544 4.06344,-21.88004 v -6.1733 q 0,-14.61274 -4.06344,-21.95819 -4.06344,-7.34544 -12.26845,-7.34544 z" />
      <path
         id="path719"
         style="font-style:normal;font-variant:normal;font-weight:normal;font-stretch:normal;font-size:160.03689575px;line-height:1.25;font-family:'Archivo Narrow';-inkscape-font-specification:'Archivo Narrow'"
         d="m -37.527855,-171.06357 h -9.924163 l -1.719146,-9.76788 h -0.859573 q -2.969435,5.86073 -7.736159,8.75202 -4.766724,2.89129 -10.62745,2.89129 -6.017012,0 -10.861879,-2.50057 -4.844867,-2.57872 -8.28316,-7.97059 -3.360149,-5.39187 -5.157439,-13.67503 -1.797289,-8.3613 -1.797289,-20.00461 0,-11.40888 1.953575,-19.69204 2.031719,-8.28316 5.391869,-13.59688 3.438292,-5.39187 7.970587,-7.97059 4.610438,-2.57872 9.84602,-2.57872 6.095155,0 10.861879,2.65686 4.844867,2.57872 7.032872,7.2673 h 0.78143 v -39.54036 h 13.128026 z m -28.209628,-74.47029 q -3.750865,0 -6.564014,1.641 -2.813148,1.641 -4.68858,5.15744 -1.875433,3.51644 -2.813149,9.14273 -0.937716,5.54816 -0.937716,13.36246 v 6.1733 q 0,7.8143 0.937716,13.36245 0.937716,5.54816 2.813149,9.06459 1.875432,3.51644 4.68858,5.15744 2.813149,1.641 6.564014,1.641 7.658015,0 11.330737,-7.34544 3.750865,-7.34544 3.750865,-21.88004 v -5.47001 q 0,-30.00692 -15.081602,-30.00692 z" />
      <path
         id="path721"
         style="font-style:normal;font-variant:normal;font-weight:normal;font-stretch:normal;font-size:160.03689575px;line-height:1.25;font-family:'Archivo Narrow';-inkscape-font-specification:'Archivo Narrow'"
         d="m 10.608241,-257.17717 q 6.876586,0 12.112168,2.26615 5.235582,2.188 8.673874,6.95472 3.438293,4.76673 5.15744,12.26846 1.797289,7.50173 1.797289,18.05103 v 8.36131 H -7.2865092 q 0.078143,14.69088 4.5322949,21.56747 4.5322949,6.87658 13.8313133,6.87658 3.125721,0 5.704441,-1.25028 2.656862,-1.32843 4.532294,-3.75087 1.953576,-2.50057 2.969435,-6.01701 1.094002,-3.51644 1.094002,-7.89244 h 12.971741 q 0,7.11101 -2.031719,12.81545 -1.953575,5.6263 -5.626297,9.61159 -3.594578,3.90715 -8.673874,6.01701 -5.079296,2.10986 -11.252595,2.10986 -7.8143012,0 -13.7531703,-2.42243 -5.9388692,-2.50058 -10.0023057,-7.8143 -3.985294,-5.39187 -6.017013,-13.67503 -2.031718,-8.3613 -2.031718,-20.08275 0,-22.58333 7.892445,-33.28893 7.9705872,-10.70559 23.755476,-10.70559 z m 0,11.64331 q -4.3760085,0 -7.5798721,1.56286 -3.12572066,1.56286 -5.2355821,4.68858 -2.1098614,3.04758 -3.2820066,7.65801 -1.1721453,4.5323 -1.6410034,10.62745 H 24.595841 q 0,-12.11216 -3.594579,-18.28546 -3.516435,-6.25144 -10.393021,-6.25144 z" />
    </g>
    <g
       id="3d_text"
       style="font-style:normal;font-weight:normal;line-height:0%;font-family:sans-serif;letter-spacing:0px;word-spacing:0px;fill:#ffffff;fill-opacity:1;stroke:none;stroke-width:1px;stroke-linecap:butt;stroke-linejoin:miter;stroke-opacity:1"
       aria-label="3D"
       transform="translate(-159.51566,-119.79572)">
      <path
         id="path778"
         style="font-style:normal;font-variant:normal;font-weight:normal;font-stretch:normal;font-size:92.67507935px;line-height:1.25;font-family:'Archivo Narrow';-inkscape-font-specification:'Archivo Narrow';text-align:center;text-anchor:middle"
         d="m -437.01652,-131.05769 q 3.71063,0 6.74248,1.13129 3.0771,1.13129 5.24917,3.34861 2.21733,2.21732 3.39387,5.47543 1.22179,3.25811 1.22179,7.51175 0,2.8056 -0.63352,5.02292 -0.63353,2.17207 -1.76481,3.89163 -1.08604,1.71956 -2.62459,3.03185 -1.4933,1.31229 -3.25811,2.307826 v 0.362012 q 2.03632,0.769276 3.71062,2.126821 1.71956,1.312293 2.9866,3.258108 1.26705,1.945815 1.94582,4.479899 0.72402,2.534084 0.72402,5.701689 0,4.253642 -1.31229,7.647505 -1.26704,3.348611 -3.57487,5.701689 -2.30783,2.307827 -5.52068,3.574869 -3.21286,1.22179 -7.01399,1.22179 -4.34414,0 -7.69275,-1.357545 -3.34861,-1.357545 -5.65644,-3.846378 -2.26258,-2.488832 -3.43911,-6.01845 -1.13129,-3.529617 -1.13129,-7.873761 v -0.724024 h 7.82851 v 1.040784 q 0,5.927947 2.39833,9.00505 2.44358,3.03185 7.14974,3.03185 2.26257,0 4.11788,-0.678772 1.90057,-0.678773 3.21286,-2.126821 1.35754,-1.4933 2.08157,-3.755875 0.76927,-2.262575 0.76927,-5.384929 0,-3.393862 -0.90503,-5.565935 -0.85977,-2.172072 -2.35307,-3.439114 -1.44805,-1.312293 -3.34862,-1.81006 -1.85531,-0.497767 -3.89162,-0.497767 h -5.24918 v -6.742471 h 5.47543 q 1.81006,0 3.48437,-0.67878 1.6743,-0.67877 2.89609,-2.03631 1.26705,-1.4028 1.99107,-3.48437 0.76928,-2.12682 0.76928,-4.93241 0,-2.94135 -0.72403,-5.02292 -0.67877,-2.12682 -1.90056,-3.48437 -1.17654,-1.35754 -2.76034,-1.99106 -1.58381,-0.63352 -3.30336,-0.63352 -1.90057,0 -3.52962,0.67877 -1.62905,0.67877 -2.80559,2.12682 -1.17654,1.4028 -1.85531,3.57487 -0.63353,2.17207 -0.63353,5.11342 v 0.81453 h -7.738 v -1.62906 q 0,-3.98213 1.22179,-7.19499 1.22179,-3.21285 3.39386,-5.47543 2.17207,-2.30783 5.20392,-3.52962 3.03185,-1.26704 6.65197,-1.26704 z" />
      <path
         id="path780"
         style="font-style:normal;font-variant:normal;font-weight:normal;font-stretch:normal;font-size:92.67507935px;line-height:1.25;font-family:'Archivo Narrow';-inkscape-font-specification:'Archivo Narrow';text-align:center;text-anchor:middle"
         d="M -409.05109,-66.348038 V -129.9264 h 19.77491 q 5.61119,0 10.04583,1.94581 4.4799,1.94582 7.60226,5.83745 3.12235,3.84638 4.75141,9.63857 1.6743,5.74694 1.6743,13.439695 0,8.145271 -1.6743,14.299475 -1.62906,6.108953 -4.75141,10.22684 -3.12236,4.072635 -7.60226,6.154205 -4.43464,2.036317 -10.04583,2.036317 z m 8.19053,-56.157112 v 48.735866 h 10.81511 q 3.75587,0 6.74247,-1.402797 3.03185,-1.448048 5.15867,-4.298893 2.12682,-2.850844 3.25811,-7.149737 1.17654,-4.344145 1.17654,-10.136337 v -4.615652 q 0,-5.29443 -1.17654,-9.27656 -1.13129,-3.98213 -3.25811,-6.60672 -2.12682,-2.62459 -5.15867,-3.93688 -2.9866,-1.31229 -6.74247,-1.31229 z" />
    </g>
    <g
       id="ux_text"
       style="font-style:normal;font-weight:normal;line-height:0%;font-family:sans-serif;letter-spacing:0px;word-spacing:0px;fill:#ffffff;fill-opacity:1;stroke:none;stroke-width:1px;stroke-linecap:butt;stroke-linejoin:miter;stroke-opacity:1"
       aria-label="VR"
       transform="translate(2.0057168,32.09073)">
      <g
         id="text4457-9"
         style="font-style:normal;font-weight:normal;font-size:17.9151535px;line-height:0%;font-family:sans-serif;letter-spacing:0px;word-spacing:0px;fill:#ffffff;fill-opacity:1;stroke:none;stroke-width:1.49292958px;stroke-linecap:butt;stroke-linejoin:miter;stroke-opacity:1"
         aria-label="UX">
        <path
           id="path2984"
           style="font-style:normal;font-variant:normal;font-weight:normal;font-stretch:normal;font-size:138.3573761px;line-height:1.25;font-family:'Archivo Narrow';-inkscape-font-specification:'Archivo Narrow';text-align:center;text-anchor:middle;stroke-width:1.49292958px"
           d="m -174.00876,-509.39182 q 0,8.03932 -2.16184,14.11948 -2.09427,6.0126 -6.14771,10.1336 -4.05344,4.12099 -9.86337,6.21527 -5.80993,2.02672 -13.10612,2.02672 -7.29619,0 -13.10612,-2.02672 -5.80993,-2.09428 -9.86337,-6.21527 -4.05343,-4.121 -6.21527,-10.1336 -2.09427,-6.08016 -2.09427,-14.11948 v -64.04433 h 12.16031 v 64.78746 q 0,10.06604 5.0668,15.33551 5.13436,5.26947 14.05192,5.26947 8.91757,0 13.98436,-5.26947 5.13436,-5.26947 5.13436,-15.33551 v -64.78746 h 12.16032 z" />
        <path
           id="path2986"
           style="font-style:normal;font-variant:normal;font-weight:normal;font-stretch:normal;font-size:138.3573761px;line-height:1.25;font-family:'Archivo Narrow';-inkscape-font-specification:'Archivo Narrow';text-align:center;text-anchor:middle;stroke-width:1.49292958px"
           d="m -92.264414,-573.43615 -1.216032,1.95916 q -1.148474,1.95916 -3.107636,5.13436 -1.891605,3.10763 -4.391228,7.09351 -2.49962,3.98589 -5.0668,8.17444 -6.08015,9.79581 -13.71413,22.22635 l 30.535905,50.3302 h -14.389705 l -23.37483,-38.77789 -23.84773,38.77789 h -12.97101 l 30.33323,-49.24928 -27.56338,-45.66874 h 14.38971 l 20.46986,33.91377 q 5.80993,-9.45802 10.47139,-16.88933 1.95916,-3.17519 3.85076,-6.21527 1.89161,-3.04008 3.31031,-5.40459 1.48626,-2.43206 2.36451,-3.91832 l 0.9458,-1.48626 z" />
      </g>
    </g>
    <g
       id="design_text"
       style="font-style:normal;font-weight:normal;line-height:0%;font-family:sans-serif;letter-spacing:0px;word-spacing:0px;fill:#ffffff;fill-opacity:1;stroke:none;stroke-width:1px;stroke-linecap:butt;stroke-linejoin:miter;stroke-opacity:1"
       aria-label="design"
       transform="matrix(1.1284087,0,0,1.1284087,46.92988,95.735101)">
      <path
         id="path737"
         style="font-style:normal;font-variant:normal;font-weight:normal;font-stretch:normal;font-size:48.38919067px;line-height:1.25;font-family:'Archivo Narrow';-inkscape-font-specification:'Archivo Narrow'"
         d="m -392.96365,-579.02087 h -3.0007 l -0.5198,-2.95345 h -0.2599 q -0.89785,1.77207 -2.33913,2.64629 -1.44128,0.87422 -3.21335,0.87422 -1.81932,0 -3.28422,-0.75608 -1.46491,-0.77971 -2.50452,-2.41001 -1.01599,-1.6303 -1.55942,-4.13482 -0.54343,-2.52815 -0.54343,-6.04865 0,-3.44962 0.59069,-5.95414 0.61431,-2.50452 1.6303,-4.11119 1.03961,-1.6303 2.41,-2.41001 1.39403,-0.77971 2.97707,-0.77971 1.84295,0 3.28423,0.80334 1.46491,0.77971 2.12648,2.19736 h 0.23627 v -11.95553 h 3.96943 z m -8.52954,-22.51704 q -1.13412,0 -1.98471,0.49617 -0.85059,0.49618 -1.41765,1.55942 -0.56707,1.06324 -0.8506,2.76442 -0.28353,1.67756 -0.28353,4.04031 v 1.86658 q 0,2.36275 0.28353,4.0403 0.28353,1.67756 0.8506,2.7408 0.56706,1.06324 1.41765,1.55942 0.85059,0.49617 1.98471,0.49617 2.3155,0 3.42599,-2.22098 1.13412,-2.22099 1.13412,-6.61571 v -1.65393 q 0,-9.07297 -4.56011,-9.07297 z" />
      <path
         id="path739"
         style="font-style:normal;font-variant:normal;font-weight:normal;font-stretch:normal;font-size:48.38919067px;line-height:1.25;font-family:'Archivo Narrow';-inkscape-font-specification:'Archivo Narrow'"
         d="m -378.40909,-605.05842 q 2.07922,0 3.66227,0.6852 1.58304,0.66157 2.62266,2.10285 1.03961,1.44128 1.55941,3.70952 0.54344,2.26825 0.54344,5.45797 v 2.52814 h -13.79848 q 0.0236,4.44198 1.37039,6.5212 1.3704,2.07922 4.18208,2.07922 0.9451,0 1.72481,-0.37804 0.80333,-0.40166 1.37039,-1.13412 0.59069,-0.75608 0.89785,-1.81932 0.33079,-1.06324 0.33079,-2.38638 h 3.92217 q 0,2.15011 -0.61432,3.87492 -0.59069,1.70118 -1.70118,2.90618 -1.08687,1.18138 -2.62266,1.81932 -1.53579,0.63795 -3.40236,0.63795 -2.36276,0 -4.15845,-0.73246 -1.79569,-0.75608 -3.02432,-2.36275 -1.20501,-1.6303 -1.81932,-4.13482 -0.61432,-2.52814 -0.61432,-6.07228 0,-6.82835 2.38638,-10.06532 2.41001,-3.23698 7.18277,-3.23698 z m 0,3.52051 q -1.32314,0 -2.29187,0.47255 -0.9451,0.47255 -1.58304,1.41765 -0.63795,0.92147 -0.99236,2.3155 -0.35441,1.37039 -0.49618,3.21334 h 9.59278 q 0,-3.66227 -1.08687,-5.52884 -1.06324,-1.8902 -3.14246,-1.8902 z" />
      <path
         id="path741"
         style="font-style:normal;font-variant:normal;font-weight:normal;font-stretch:normal;font-size:48.38919067px;line-height:1.25;font-family:'Archivo Narrow';-inkscape-font-specification:'Archivo Narrow'"
         d="m -357.78225,-605.05842 q 1.77206,0 3.11883,0.56706 1.3704,0.54344 2.29187,1.51217 0.94511,0.9451 1.41766,2.22098 0.47255,1.25226 0.47255,2.66992 0,0.2599 -0.0236,0.56706 -0.0236,0.28353 -0.0236,0.35441 h -4.11119 v -0.4253 q 0,-0.73245 -0.16539,-1.44128 -0.1654,-0.73245 -0.59069,-1.29951 -0.40167,-0.56706 -1.08687,-0.89785 -0.66157,-0.35441 -1.67755,-0.35441 -1.06324,0 -1.72481,0.35441 -0.66157,0.35442 -1.06324,0.87422 -0.37804,0.51981 -0.51981,1.13412 -0.14176,0.61432 -0.14176,1.13413 0,1.03961 0.49618,1.72481 0.49617,0.66157 1.29951,1.13412 0.82696,0.47255 1.86658,0.82696 1.06323,0.35441 2.1501,0.75608 1.08687,0.40167 2.12648,0.9451 1.06324,0.51981 1.86657,1.3704 0.82697,0.82696 1.32315,2.0556 0.49617,1.22863 0.49617,3.00069 0,2.0556 -0.61431,3.54413 -0.61432,1.46491 -1.70118,2.43364 -1.08687,0.9451 -2.5754,1.39402 -1.48854,0.44893 -3.23698,0.44893 -2.19736,0 -3.75678,-0.61432 -1.55941,-0.63794 -2.55177,-1.67755 -0.96873,-1.06324 -1.44128,-2.38639 -0.44892,-1.34676 -0.44892,-2.76442 0,-0.49617 0.0236,-0.73245 0.0236,-0.2599 0.0236,-0.33079 h 4.18208 v 0.49618 q 0,1.20501 0.30716,2.0556 0.33078,0.85059 0.89784,1.41765 0.56706,0.54343 1.32314,0.80334 0.75608,0.2599 1.6303,0.2599 0.77971,0 1.46491,-0.23628 0.6852,-0.23627 1.205,-0.70882 0.54344,-0.49618 0.8506,-1.20501 0.30715,-0.70882 0.30715,-1.6303 0,-1.205 -0.49617,-1.98471 -0.49618,-0.77971 -1.32315,-1.29951 -0.80333,-0.54344 -1.84294,-0.92148 -1.03962,-0.40167 -2.15011,-0.80333 -1.08687,-0.40167 -2.12648,-0.92148 -1.03961,-0.5198 -1.86657,-1.29951 -0.80334,-0.80334 -1.29952,-1.96109 -0.49618,-1.18137 -0.49618,-2.88256 0,-1.70118 0.54344,-3.04795 0.56706,-1.34677 1.60667,-2.26824 1.03961,-0.9451 2.48089,-1.44128 1.46491,-0.51981 3.28423,-0.51981 z" />
      <path
         id="path743"
         style="font-style:normal;font-variant:normal;font-weight:normal;font-stretch:normal;font-size:48.38919067px;line-height:1.25;font-family:'Archivo Narrow';-inkscape-font-specification:'Archivo Narrow'"
         d="m -341.66827,-579.02087 h -3.9458 v -25.44686 h 3.9458 z m 0,-30.24325 h -3.9458 v -4.74913 h 3.9458 z" />
      <path
         id="path745"
         style="font-style:normal;font-variant:normal;font-weight:normal;font-stretch:normal;font-size:48.38919067px;line-height:1.25;font-family:'Archivo Narrow';-inkscape-font-specification:'Archivo Narrow'"
         d="m -318.15887,-608.60255 q 0,1.13412 -0.28353,2.15011 -0.28354,0.99235 -0.8506,1.79569 -0.54343,0.80334 -1.34677,1.3704 -0.7797,0.54343 -1.77206,0.80333 1.06324,1.1105 1.65393,2.59903 0.61431,1.48854 0.61431,3.40237 0,1.96108 -0.59069,3.54413 -0.56706,1.58304 -1.6303,2.69354 -1.06323,1.08686 -2.5754,1.70118 -1.48853,0.59069 -3.33148,0.61432 h -2.66991 q -0.49618,0 -0.92147,0.18902 -0.40167,0.16539 -0.73246,0.47255 -0.30716,0.30715 -0.49618,0.73245 -0.16539,0.40167 -0.16539,0.87422 0,0.47255 0.18902,0.89785 0.18902,0.40166 0.49618,0.73245 0.33079,0.30716 0.73245,0.49618 0.4253,0.16539 0.89785,0.16539 h 7.27728 q 1.3704,0 2.48089,0.47255 1.1105,0.47255 1.8902,1.29951 0.77971,0.80334 1.18138,1.89021 0.4253,1.06324 0.4253,2.26824 0,1.51216 -0.49618,2.8353 -0.47255,1.32315 -1.41765,2.29188 -0.94511,0.96872 -2.33913,1.53579 -1.39402,0.56706 -3.18972,0.56706 h -7.2064 q -1.55941,0 -2.74079,-0.47255 -1.18138,-0.47256 -1.98471,-1.29952 -0.77971,-0.82696 -1.18138,-1.93746 -0.40167,-1.08686 -0.40167,-2.33912 0,-0.92148 0.23628,-1.7957 0.23627,-0.85059 0.66157,-1.55941 0.4253,-0.70883 1.03961,-1.25226 0.61432,-0.54344 1.3704,-0.82697 -0.99236,-0.61431 -1.53579,-1.6303 -0.54343,-1.03961 -0.54343,-2.19736 0,-1.55941 0.96872,-2.66991 0.99236,-1.13412 2.62266,-1.72481 -1.39402,-1.13412 -2.17373,-2.76442 -0.77971,-1.65393 -0.77971,-3.80403 0,-2.00834 0.56706,-3.59139 0.56706,-1.58304 1.6303,-2.69354 1.08687,-1.11049 2.62266,-1.70118 1.55941,-0.59069 3.49687,-0.59069 0.96873,0 1.91383,0.25991 0.9451,0.23627 1.74844,0.66157 0.85059,-0.44893 1.41765,-0.96873 0.56706,-0.54344 0.92147,-1.1105 0.35442,-0.59068 0.51981,-1.18137 0.18902,-0.59069 0.28353,-1.20501 z m -13.56221,29.01462 q -0.75608,0 -1.32314,0.23627 -0.54343,0.21265 -0.92147,0.61432 -0.35442,0.40166 -0.54344,0.9451 -0.16539,0.54343 -0.16539,1.15775 0,0.61431 0.18902,1.15775 0.18902,0.54343 0.54343,0.9451 0.37804,0.42529 0.92148,0.66157 0.56706,0.23627 1.29951,0.23627 h 7.01738 q 0.63794,0 1.18138,-0.23627 0.54343,-0.23628 0.9451,-0.66157 0.42529,-0.40167 0.63794,-0.9451 0.23628,-0.54344 0.23628,-1.15775 0,-0.61432 -0.18902,-1.15775 -0.1654,-0.54344 -0.54344,-0.9451 -0.37804,-0.40167 -0.9451,-0.61432 -0.54343,-0.23627 -1.32314,-0.23627 z m 3.21335,-22.18626 q -2.12648,0 -3.21335,1.41765 -1.08687,1.41765 -1.08687,3.87492 0,2.55177 1.08687,3.89854 1.08687,1.34677 3.21335,1.34677 2.12647,0 3.23697,-1.39402 1.11049,-1.41766 1.11049,-3.85129 0,-2.5754 -1.11049,-3.92217 -1.1105,-1.3704 -3.23697,-1.3704 z" />
      <path
         id="path747"
         style="font-style:normal;font-variant:normal;font-weight:normal;font-stretch:normal;font-size:48.38919067px;line-height:1.25;font-family:'Archivo Narrow';-inkscape-font-specification:'Archivo Narrow'"
         d="m -304.26588,-605.05842 q 1.44127,0 2.59902,0.40167 1.15775,0.40167 1.96109,1.32314 0.82696,0.92148 1.27589,2.38638 0.44892,1.46491 0.44892,3.59139 v 18.33497 h -3.96943 v -18.05144 q 0,-1.32314 -0.2599,-2.17373 -0.2599,-0.87422 -0.73245,-1.3704 -0.47255,-0.51981 -1.13412,-0.70883 -0.66158,-0.21264 -1.46491,-0.21264 -0.9451,0 -1.79569,0.47255 -0.8506,0.47255 -1.51217,1.37039 -0.63794,0.89785 -1.03961,2.19736 -0.37804,1.29952 -0.37804,2.95345 v 15.52329 h -3.96942 v -25.44686 h 3.00069 l 0.54344,2.92982 h 0.28353 q 1.06324,-1.89021 2.64628,-2.69354 1.58305,-0.82697 3.49688,-0.82697 z" />
    </g>
    <g
       id="web_text"
       style="font-style:normal;font-weight:normal;line-height:0%;font-family:sans-serif;letter-spacing:0px;word-spacing:0px;fill:#ffffff;fill-opacity:1;stroke:none;stroke-width:1px;stroke-linecap:butt;stroke-linejoin:miter;stroke-opacity:1"
       aria-label="web"
       transform="matrix(2.3132444,0,0,2.3132444,908.96262,194.56719)">
      <path
         id="path760"
         style="font-style:normal;font-variant:normal;font-weight:normal;font-stretch:normal;font-size:59.19625473px;line-height:1.25;font-family:'Archivo Narrow';-inkscape-font-specification:'Archivo Narrow';text-align:center;text-anchor:middle"
         d="m -586.89674,-225.3203 h -5.37622 l -3.2662,-17.74731 q -0.23124,-1.21399 -0.40466,-2.48578 -0.14452,-1.2718 -0.28905,-2.31236 -0.14452,-1.21398 -0.26014,-2.37016 h -0.23123 q -0.11562,1.15618 -0.26014,2.37016 -0.14452,1.04056 -0.31795,2.31236 -0.14452,1.27179 -0.37576,2.48578 l -3.17948,17.74731 h -5.40513 l -7.74639,-31.13006 h 5.31842 l 3.90209,17.51608 q 0.23124,0.95385 0.43357,2.22564 0.23124,1.2718 0.40466,2.42797 0.20233,1.35851 0.40466,2.74592 h 0.26014 q 0.11562,-1.21398 0.26014,-2.48578 0.14453,-1.09837 0.28905,-2.39907 0.17343,-1.30069 0.40466,-2.51468 l 3.15058,-17.51608 h 5.60746 l 3.20839,17.51608 q 0.20233,1.21399 0.34685,2.51468 0.17343,1.2718 0.31795,2.37017 0.14452,1.27179 0.26014,2.51468 h 0.23124 q 0.14452,-1.12727 0.34685,-2.37016 0.14452,-1.06946 0.37576,-2.37016 0.23123,-1.3007 0.52028,-2.65921 l 3.90209,-17.51608 h 4.91376 z" />
      <path
         id="path762"
         style="font-style:normal;font-variant:normal;font-weight:normal;font-stretch:normal;font-size:59.19625473px;line-height:1.25;font-family:'Archivo Narrow';-inkscape-font-specification:'Archivo Narrow';text-align:center;text-anchor:middle"
         d="m -564.84267,-257.17297 q 2.54359,0 4.48019,0.83823 1.9366,0.80932 3.20839,2.57249 1.27179,1.76317 1.90769,4.538 0.6648,2.77482 0.6648,6.67692 v 3.09277 h -16.88018 q 0.0289,5.43403 1.67646,7.97762 1.67645,2.54359 5.11608,2.54359 1.15618,0 2.11002,-0.46247 0.98275,-0.49138 1.67646,-1.38741 0.72261,-0.92494 1.09837,-2.22564 0.40466,-1.3007 0.40466,-2.91935 h 4.79813 q 0,2.6303 -0.75151,4.74033 -0.72261,2.08111 -2.08112,3.55524 -1.3296,1.44522 -3.20839,2.22564 -1.87879,0.78042 -4.16224,0.78042 -2.89044,0 -5.08717,-0.89604 -2.19674,-0.92494 -3.69977,-2.89044 -1.47413,-1.99441 -2.22564,-5.05827 -0.75152,-3.09278 -0.75152,-7.42844 0,-8.35338 2.91935,-12.31328 2.94825,-3.95991 8.78694,-3.95991 z m 0,4.30676 q -1.61864,0 -2.80372,0.57809 -1.15618,0.57809 -1.9366,1.73426 -0.78042,1.12728 -1.21399,2.83264 -0.43356,1.67645 -0.60699,3.931 h 11.7352 q 0,-4.48019 -1.32961,-6.76364 -1.3007,-2.31235 -3.84429,-2.31235 z" />
      <path
         id="path764"
         style="font-style:normal;font-variant:normal;font-weight:normal;font-stretch:normal;font-size:59.19625473px;line-height:1.25;font-family:'Archivo Narrow';-inkscape-font-specification:'Archivo Narrow';text-align:center;text-anchor:middle"
         d="m -544.1182,-228.93335 -0.63589,3.61305 h -3.67086 v -42.80745 h 4.85594 v 14.62564 h 0.28904 q 0.80933,-1.73426 2.5725,-2.68811 1.79207,-0.98275 4.04662,-0.98275 1.93659,0 3.64195,0.95385 1.70536,0.92494 2.94825,2.91934 1.2718,1.9655 1.99441,5.02937 0.72261,3.06387 0.72261,7.31282 0,4.30676 -0.69371,7.39953 -0.6648,3.09278 -1.93659,5.08718 -1.24289,1.99441 -3.03497,2.94825 -1.76317,0.92494 -3.98881,0.92494 -2.13892,0 -3.931,-1.09836 -1.76317,-1.09837 -2.86154,-3.2373 z m 11.67739,-13.0937 q 0,-2.89044 -0.34685,-4.94266 -0.34686,-2.05221 -1.04056,-3.35291 -0.69371,-1.3007 -1.76317,-1.90769 -1.04056,-0.607 -2.42797,-0.607 -5.54965,0 -5.54965,11.0704 v 1.9944 q 0,5.40513 1.35851,8.12214 1.38741,2.71702 4.19114,2.71702 1.38741,0 2.42797,-0.60699 1.06946,-0.607 1.76317,-1.90769 0.6937,-1.3007 1.04056,-3.35292 0.34685,-2.05221 0.34685,-4.97156 z" />
    </g>
    <g
       id="2d_text"
       style="font-style:normal;font-weight:normal;line-height:0%;font-family:sans-serif;letter-spacing:0px;word-spacing:0px;fill:#ffffff;fill-opacity:1;stroke:none;stroke-width:1px;stroke-linecap:butt;stroke-linejoin:miter;stroke-opacity:1"
       aria-label="2D"
       transform="matrix(1.4815639,0,0,1.4815639,213.63778,261.70783)">
      <path
         id="path755"
         style="font-style:normal;font-variant:normal;font-weight:normal;font-stretch:normal;font-size:27.88118172px;line-height:1.25;font-family:'Archivo Narrow';-inkscape-font-specification:'Archivo Narrow';text-align:center;text-anchor:middle"
         d="m -455.84319,-532.37816 q 1.03465,0 1.94678,0.28589 0.91213,0.2859 1.57921,0.88491 0.68069,0.599 1.07549,1.53836 0.39481,0.93936 0.39481,2.2599 0,1.19802 -0.36758,2.27352 -0.36757,1.06188 -0.96658,2.02846 -0.59901,0.96658 -1.36139,1.85149 -0.76237,0.8849 -1.53836,1.72896 -0.77599,0.84405 -1.51114,1.66089 -0.73515,0.81683 -1.26609,1.63366 -0.16337,0.25866 -0.28589,0.50371 -0.12253,0.24505 -0.20421,0.47649 h 7.58292 v 2.34158 h -10.40099 v -0.35396 q 0,-1.14356 0.34035,-2.17822 0.34034,-1.04826 0.99381,-1.98762 0.57178,-0.83045 1.2797,-1.62005 0.70792,-0.80322 1.42946,-1.59282 0.73515,-0.7896 1.42945,-1.57921 0.69431,-0.7896 1.22525,-1.62005 0.54455,-0.84406 0.87129,-1.72896 0.32673,-0.8849 0.32673,-1.8651 0,-0.47648 -0.12253,-0.98019 -0.12252,-0.50372 -0.42202,-0.91213 -0.2859,-0.40842 -0.78961,-0.66708 -0.50371,-0.25866 -1.26609,-0.25866 -0.74876,0 -1.26609,0.2995 -0.50371,0.28589 -0.81683,0.7896 -0.31312,0.4901 -0.44926,1.15718 -0.13613,0.66708 -0.13613,1.40223 v 1.15718 h -2.36882 q -0.0272,-0.13614 -0.0408,-0.31312 -0.0408,-0.29951 -0.0408,-0.81683 0,-1.53837 0.40842,-2.62748 0.42203,-1.10272 1.12995,-1.81064 0.70792,-0.70792 1.63366,-1.03465 0.93936,-0.32674 1.97401,-0.32674 z" />
      <path
         id="path757"
         style="font-style:normal;font-variant:normal;font-weight:normal;font-stretch:normal;font-size:27.88118172px;line-height:1.25;font-family:'Archivo Narrow';-inkscape-font-specification:'Archivo Narrow';text-align:center;text-anchor:middle"
         d="m -447.56596,-512.91034 v -19.12747 h 5.94925 q 1.68812,0 3.02228,0.5854 1.34777,0.58539 2.28713,1.75618 0.93935,1.15718 1.42945,2.89976 0.50371,1.72896 0.50371,4.04331 0,2.4505 -0.50371,4.30198 -0.4901,1.83787 -1.42945,3.07673 -0.93936,1.22525 -2.28713,1.85149 -1.33416,0.61262 -3.02228,0.61262 z m 2.4641,-16.8948 v 14.66213 h 3.25372 q 1.12995,0 2.02846,-0.42203 0.91213,-0.43565 1.55198,-1.29332 0.63985,-0.85767 0.9802,-2.15099 0.35396,-1.30693 0.35396,-3.0495 v -1.38862 q 0,-1.59282 -0.35396,-2.79084 -0.34035,-1.19802 -0.9802,-1.98762 -0.63985,-0.7896 -1.55198,-1.18441 -0.89851,-0.3948 -2.02846,-0.3948 z" />
    </g>
    <g
       id="mobile_text"
       style="font-style:normal;font-weight:normal;font-size:41.55950165px;line-height:0%;font-family:sans-serif;letter-spacing:0px;word-spacing:0px;fill:#ffffff;fill-opacity:1;stroke:none;stroke-width:3.46329188px;stroke-linecap:butt;stroke-linejoin:miter;stroke-opacity:1"
       aria-label="mobile"
       transform="matrix(1.2729739,0,0,1.2729739,109.78999,438.16847)">
      <path
         id="path724"
         style="font-style:normal;font-variant:normal;font-weight:normal;font-stretch:normal;font-size:77.17856598px;line-height:1.25;font-family:'Archivo Narrow';-inkscape-font-specification:'Archivo Narrow';stroke-width:3.46329188px"
         d="m -465.5795,-398.51244 q 2.14804,0 3.88154,0.64065 1.77119,0.64064 3.01479,2.11035 1.28128,1.46971 1.95961,3.80617 0.71601,2.33646 0.71601,5.72809 v 29.24345 h -6.33105 v -28.79123 q 0,-2.11035 -0.41454,-3.467 -0.37685,-1.39434 -1.09286,-2.18572 -0.71601,-0.82907 -1.65813,-1.13055 -0.94212,-0.33916 -2.07267,-0.33916 -1.43202,0 -2.71331,0.75369 -1.2436,0.7537 -2.2234,2.18573 -0.94212,1.43202 -1.5074,3.50469 -0.52758,2.07266 -0.52758,4.7106 v 24.75895 h -6.33106 v -28.79123 q 0,-2.11035 -0.41453,-3.467 -0.37685,-1.39434 -1.09286,-2.18572 -0.67833,-0.82907 -1.65814,-1.13055 -0.94212,-0.33916 -2.07266,-0.33916 -1.43203,0 -2.71331,0.75369 -1.2436,0.7537 -2.22341,2.18573 -0.94212,1.43202 -1.50739,3.50469 -0.56527,2.07266 -0.56527,4.7106 v 24.75895 h -6.33106 v -40.58658 h 4.78598 l 0.86675,4.67292 h 0.45222 q 1.62045,-3.01479 3.95691,-4.29608 2.37414,-1.31897 5.31356,-1.31897 2.9771,0 5.23819,1.39434 2.29878,1.35666 3.39164,4.4845 1.65813,-2.90173 4.29607,-4.37144 2.63794,-1.5074 5.57736,-1.5074 z" />
      <path
         id="path726"
         style="font-style:normal;font-variant:normal;font-weight:normal;font-stretch:normal;font-size:77.17856598px;line-height:1.25;font-family:'Archivo Narrow';-inkscape-font-specification:'Archivo Narrow';stroke-width:3.46329188px"
         d="m -433.73581,-398.51244 q 7.12244,0 10.81556,5.16283 3.69311,5.16282 3.69311,16.05374 0,10.92861 -3.69311,16.09143 -3.69312,5.12514 -10.81556,5.12514 -7.12243,0 -10.81555,-5.12514 -3.69311,-5.16282 -3.69311,-16.09143 0,-10.89092 3.69311,-16.05374 3.69312,-5.16283 10.81555,-5.16283 z m 0,5.61505 q -3.99459,0 -5.9542,3.54237 -1.92193,3.54238 -1.92193,10.58944 v 2.97711 q 0,7.00938 1.92193,10.55175 1.95961,3.54238 5.9542,3.54238 3.95691,0 5.91653,-3.54238 1.95961,-3.54237 1.95961,-10.55175 v -2.97711 q 0,-7.04706 -1.95961,-10.58944 -1.95962,-3.54237 -5.91653,-3.54237 z" />
      <path
         id="path728"
         style="font-style:normal;font-variant:normal;font-weight:normal;font-stretch:normal;font-size:77.17856598px;line-height:1.25;font-family:'Archivo Narrow';-inkscape-font-specification:'Archivo Narrow';stroke-width:3.46329188px"
         d="m -405.81134,-361.69434 -0.82906,4.71061 h -4.78598 v -55.81126 h 6.33106 v 19.06853 h 0.37684 q 1.05518,-2.26109 3.35396,-3.50469 2.33646,-1.28129 5.27587,-1.28129 2.52489,0 4.74829,1.2436 2.22341,1.20592 3.84386,3.80617 1.65813,2.56257 2.60025,6.55717 0.94212,3.99459 0.94212,9.53426 0,5.61505 -0.90443,9.64732 -0.86675,4.03228 -2.52489,6.63254 -1.62045,2.60025 -3.95691,3.84385 -2.29877,1.20592 -5.2005,1.20592 -2.78868,0 -5.12514,-1.43203 -2.29878,-1.43202 -3.7308,-4.2207 z m 15.22468,-17.07124 q 0,-3.76848 -0.45222,-6.4441 -0.45221,-2.67563 -1.35665,-4.37145 -0.90444,-1.69581 -2.29878,-2.4872 -1.35665,-0.79138 -3.16552,-0.79138 -7.23549,0 -7.23549,14.4333 v 2.60025 q 0,7.04707 1.77118,10.58944 1.80888,3.54238 5.46431,3.54238 1.80887,0 3.16552,-0.79138 1.39434,-0.79138 2.29878,-2.4872 0.90444,-1.69582 1.35665,-4.37144 0.45222,-2.67563 0.45222,-6.4818 z" />
      <path
         id="path730"
         style="font-style:normal;font-variant:normal;font-weight:normal;font-stretch:normal;font-size:77.17856598px;line-height:1.25;font-family:'Archivo Narrow';-inkscape-font-specification:'Archivo Narrow';stroke-width:3.46329188px"
         d="m -370.61368,-356.98373 h -6.29337 v -40.58658 h 6.29337 z m 0,-48.23661 h -6.29337 v -7.57465 h 6.29337 z" />
      <path
         id="path732"
         style="font-style:normal;font-variant:normal;font-weight:normal;font-stretch:normal;font-size:77.17856598px;line-height:1.25;font-family:'Archivo Narrow';-inkscape-font-specification:'Archivo Narrow';stroke-width:3.46329188px"
         d="m -356.59493,-356.98373 h -6.29337 v -55.81126 h 6.29337 z" />
      <path
         id="path734"
         style="font-style:normal;font-variant:normal;font-weight:normal;font-stretch:normal;font-size:77.17856598px;line-height:1.25;font-family:'Archivo Narrow';-inkscape-font-specification:'Archivo Narrow';stroke-width:3.46329188px"
         d="m -334.24781,-398.51244 q 3.31627,0 5.84115,1.09287 2.52489,1.05517 4.18302,3.35395 1.65813,2.29877 2.4872,5.91652 0.86675,3.61774 0.86675,8.7052 v 4.03228 h -22.00795 q 0.0377,7.08475 2.18572,10.40101 2.18572,3.31627 6.67022,3.31627 1.50739,0 2.75099,-0.60296 1.28129,-0.64064 2.18573,-1.80887 0.94212,-1.20592 1.43202,-2.90173 0.52759,-1.69582 0.52759,-3.80617 h 6.25568 q 0,3.42932 -0.9798,6.18031 -0.94213,2.71331 -2.71331,4.63524 -1.73351,1.88424 -4.18302,2.90173 -2.44952,1.01749 -5.42662,1.01749 -3.76848,0 -6.63253,-1.16823 -2.86405,-1.20591 -4.82366,-3.76848 -1.92193,-2.60026 -2.90174,-6.59485 -0.9798,-4.03228 -0.9798,-9.68501 0,-10.89092 3.80617,-16.05374 3.84385,-5.16283 11.45619,-5.16283 z m 0,5.61505 q -2.11035,0 -3.65543,0.75369 -1.50739,0.7537 -2.52488,2.26109 -1.01749,1.46971 -1.58277,3.69312 -0.56527,2.18572 -0.79138,5.12514 h 15.30005 q 0,-5.84115 -1.7335,-8.81826 -1.69582,-3.01478 -5.01209,-3.01478 z" />
    </g>
    <g
       id="enjambrebit"
       style="font-style:normal;font-variant:normal;font-weight:normal;font-stretch:normal;font-size:33.65017319px;line-height:0%;font-family:Asap;-inkscape-font-specification:Asap;letter-spacing:0px;word-spacing:0px;display:inline;fill:#aa0000;fill-opacity:1;stroke:none;stroke-width:2.8041811"
       aria-label="enjambre bit">
      <path
         id="path3077"
         style="font-style:normal;font-variant:normal;font-weight:normal;font-stretch:normal;font-size:232.39750671px;line-height:1.25;font-family:TRACEROUTE;-inkscape-font-specification:TRACEROUTE;fill:#aa0000;fill-opacity:1;stroke-width:2.8041811"
         d="m -875.9455,229.87242 22.31016,21.84537 v 42.76114 l -22.31016,22.31016 h -69.71925 v 9.0635 l 11.15508,11.38748 h 69.71925 v 22.31016 h -80.87433 l -22.31016,-22.31016 v -85.52228 l 22.31016,-21.84537 z m 0,53.45143 v -20.45098 l -11.15508,-11.15508 h -47.40909 l -11.15508,11.15508 v 31.60606 h 58.56417 z" />
      <path
         id="path3079"
         style="font-style:normal;font-variant:normal;font-weight:normal;font-stretch:normal;font-size:232.39750671px;line-height:1.25;font-family:TRACEROUTE;-inkscape-font-specification:TRACEROUTE;fill:#aa0000;fill-opacity:1;stroke-width:2.8041811"
         d="m -805.86313,229.87242 h 92.02941 v 129.67781 h -22.31016 V 251.71779 h -58.56417 l -11.15508,11.15508 v 96.67736 h -22.31016 V 251.71779 Z" />
      <path
         id="path3081"
         style="font-style:normal;font-variant:normal;font-weight:normal;font-stretch:normal;font-size:232.39750671px;line-height:1.25;font-family:TRACEROUTE;-inkscape-font-specification:TRACEROUTE;fill:#aa0000;fill-opacity:1;stroke-width:2.8041811"
         d="m -667.2235,207.09747 h 21.14818 v 21.14817 h -21.14818 z m 0,153.84715 V 238.70353 h 21.14818 V 371.6349 l -21.14818,20.91578 h -21.14817 V 371.6349 h 10.69028 z" />
      <path
         id="path3083"
         style="font-style:normal;font-variant:normal;font-weight:normal;font-stretch:normal;font-size:232.39750671px;line-height:1.25;font-family:TRACEROUTE;-inkscape-font-specification:TRACEROUTE;fill:#aa0000;fill-opacity:1;stroke-width:2.8041811"
         d="m -528.25705,229.87242 22.31016,21.84537 v 107.83244 h -92.02942 l -22.31016,-22.31016 v -42.76114 l 22.31016,-22.31016 h 69.71926 v -9.2959 l -11.15508,-11.15508 h -69.71926 v -21.84537 z m 0,107.36765 v -42.76114 h -58.56418 l -11.15508,11.15508 v 20.21858 l 11.15508,11.38748 z" />
      <path
         id="path3085"
         style="font-style:normal;font-variant:normal;font-weight:normal;font-stretch:normal;font-size:232.39750671px;line-height:1.25;font-family:TRACEROUTE;-inkscape-font-specification:TRACEROUTE;fill:#aa0000;fill-opacity:1;stroke-width:2.8041811"
         d="m -366.14529,229.87242 22.31016,21.84537 v 107.83244 h -22.31016 v -96.67736 l -11.15508,-11.15508 h -23.70454 v 107.83244 h -22.31016 V 251.71779 h -34.85963 v 107.83244 h -22.31016 V 229.87242 Z" />
      <path
         id="path3087"
         style="font-style:normal;font-variant:normal;font-weight:normal;font-stretch:normal;font-size:232.39750671px;line-height:1.25;font-family:TRACEROUTE;-inkscape-font-specification:TRACEROUTE;fill:#aa0000;fill-opacity:1;stroke-width:2.8041811"
         d="m -226.41266,229.87242 22.31016,21.84537 v 85.52228 l -22.31016,22.31016 h -92.02942 V 207.09747 h 22.31017 v 22.77495 z m 0,95.98017 v -62.97972 l -11.15508,-11.15508 h -58.56417 v 85.52228 h 58.56417 z" />
      <path
         id="path3089"
         style="font-style:normal;font-variant:normal;font-weight:normal;font-stretch:normal;font-size:232.39750671px;line-height:1.25;font-family:TRACEROUTE;-inkscape-font-specification:TRACEROUTE;fill:#aa0000;fill-opacity:1;stroke-width:2.8041811"
         d="m -156.33028,229.87242 h 92.029414 v 21.84537 H -145.1752 l -11.15508,11.15508 v 96.67736 h -22.31016 V 251.71779 Z" />
      <path
         id="path3091"
         style="font-style:normal;font-variant:normal;font-weight:normal;font-stretch:normal;font-size:232.39750671px;line-height:1.25;font-family:TRACEROUTE;-inkscape-font-specification:TRACEROUTE;fill:#aa0000;fill-opacity:1;stroke-width:2.8041811"
         d="m 53.190609,229.87242 22.310161,21.84537 v 42.76114 l -22.310161,22.31016 h -69.719252 v 9.0635 l 11.1550803,11.38748 H 64.345689 v 22.31016 h -80.874332 l -22.310161,-22.31016 v -85.52228 l 22.310161,-21.84537 z m 0,53.45143 V 262.87287 L 42.035529,251.71779 H -5.3735627 l -11.1550803,11.15508 v 31.60606 h 58.564172 z" />
      <path
         id="path3093"
         style="font-style:normal;font-variant:normal;font-weight:normal;font-stretch:normal;font-size:232.39750671px;line-height:1.25;font-family:TRACEROUTE;-inkscape-font-specification:TRACEROUTE;fill:#aa0000;fill-opacity:1;stroke-width:2.8041811"
         d="m 258.35406,229.87242 22.31016,21.84537 v 85.52228 l -22.31016,22.31016 H 166.32465 V 207.09747 h 22.31016 v 22.77495 z m 0,95.98017 v -62.97972 l -11.15508,-11.15508 h -58.56417 v 85.52228 h 58.56417 z" />
      <path
         id="path3095"
         style="font-style:normal;font-variant:normal;font-weight:normal;font-stretch:normal;font-size:232.39750671px;line-height:1.25;font-family:TRACEROUTE;-inkscape-font-specification:TRACEROUTE;fill:#aa0000;fill-opacity:1;stroke-width:2.8041811"
         d="m 328.66872,229.87242 v -22.77495 h -22.54256 v 22.77495 z M 306.12616,359.55023 V 240.56271 h 22.54256 v 118.98752 z" />
      <path
         id="path3097"
         style="font-style:normal;font-variant:normal;font-weight:normal;font-stretch:normal;font-size:232.39750671px;line-height:1.25;font-family:TRACEROUTE;-inkscape-font-specification:TRACEROUTE;fill:#aa0000;fill-opacity:1;stroke-width:2.8041811"
         d="m 468.57938,251.71779 h -92.02941 v 74.1348 l 11.15508,11.38748 h 80.87433 v 22.31016 h -92.02941 l -22.31016,-22.31016 v -130.1426 h 22.31016 v 22.77495 h 92.02941 z" />
    </g>
    <g
       transform="translate(-392.68176,430.52821)"
       aria-label="VR"
       style="font-style:normal;font-weight:normal;line-height:0%;font-family:sans-serif;letter-spacing:0px;word-spacing:0px;fill:#ffffff;fill-opacity:1;stroke:none;stroke-width:1px;stroke-linecap:butt;stroke-linejoin:miter;stroke-opacity:1"
       id="ar_text">
      <g
         id="text2980"
         style="font-style:normal;font-weight:normal;font-size:4.52554035px;line-height:0%;font-family:sans-serif;letter-spacing:0px;word-spacing:0px;fill:#ffffff;fill-opacity:1;stroke:none;stroke-width:0.37712839px;stroke-linecap:butt;stroke-linejoin:miter;stroke-opacity:1"
         aria-label="AR">
        <path
           id="path2989"
           style="font-style:normal;font-variant:normal;font-weight:normal;font-stretch:normal;font-size:34.95040512px;line-height:1.25;font-family:'Archivo Narrow';-inkscape-font-specification:'Archivo Narrow';text-align:center;text-anchor:middle;stroke-width:0.37712839px"
           d="m -181.51771,-532.34233 h -9.50555 l -1.6383,5.34154 h -3.07181 l 7.61127,-23.97721 h 3.95922 l 7.61127,23.97721 h -3.31073 z m -8.65227,-2.79877 h 7.78193 l -3.24247,-10.66601 q -0.1024,-0.29012 -0.20479,-0.73383 -0.0853,-0.46077 -0.17066,-0.88741 -0.0853,-0.4949 -0.18772,-1.02394 h -0.13652 q -0.1024,0.5461 -0.18772,1.04101 -0.0853,0.42664 -0.18773,0.87034 -0.10239,0.44371 -0.18772,0.73383 z" />
        <path
           id="path2991"
           style="font-style:normal;font-variant:normal;font-weight:normal;font-stretch:normal;font-size:34.95040512px;line-height:1.25;font-family:'Archivo Narrow';-inkscape-font-specification:'Archivo Narrow';text-align:center;text-anchor:middle;stroke-width:0.37712839px"
           d="m -157.33571,-544.33947 q 0,2.2356 -1.12633,3.8739 -1.10927,1.62123 -3.12301,2.32092 l 4.8125,11.14386 h -3.41312 l -4.45413,-10.59776 h -6.41668 v 10.59776 h -3.08887 V -550.978 h 9.65914 q 1.75776,0 3.08888,0.4949 1.34818,0.47784 2.25266,1.34819 0.90448,0.87034 1.34819,2.09907 0.46077,1.21166 0.46077,2.69637 z m -13.72077,-3.83977 v 7.79899 h 6.45081 q 0.92155,0 1.67243,-0.27305 0.75089,-0.29011 1.27992,-0.80208 0.52904,-0.52903 0.81915,-1.26286 0.29012,-0.73382 0.29012,-1.62123 0,-1.79189 -1.041,-2.81583 -1.04101,-1.02394 -3.02062,-1.02394 z" />
      </g>
    </g>
  </g>
</svg>
